<svg width="234" height="48" viewBox="0 0 234 48" fill="none" xmlns="http://www.w3.org/2000/svg">
<path d="M4.75 0H33.25C35.8744 0 38 2.148 38 4.8V43.2C38 45.852 35.8744 48 33.25 48H4.75C2.12563 48 0 45.852 0 43.2V4.8C0 2.148 2.12563 0 4.75 0ZM33.25 4.8H21.375V24L27.3125 20.4L33.25 24V4.8Z" fill="white"/>
<path d="M59.2212 35.145V31.433H64.1802C65.0695 31.433 65.7365 31.201 66.1812 30.737C66.6259 30.273 66.8482 29.6157 66.8482 28.765C66.8482 27.9143 66.6259 27.2667 66.1812 26.822C65.7365 26.358 65.0695 26.126 64.1802 26.126H59.2212V23.255H63.9482C65.4175 23.255 66.7225 23.4387 67.8632 23.806C69.0039 24.154 69.9029 24.7243 70.5602 25.517C71.2175 26.3097 71.5462 27.3827 71.5462 28.736V29.142C71.5462 30.3987 71.2562 31.4813 70.6762 32.39C70.0962 33.2793 69.2455 33.9657 68.1242 34.449C67.0029 34.913 65.6109 35.145 63.9482 35.145H59.2212ZM55.1612 35.145V13.656H59.8012V35.145H55.1612ZM59.2212 25.372V22.53H63.3972C64.3059 22.53 64.9632 22.298 65.3692 21.834C65.7752 21.37 65.9782 20.7513 65.9782 19.978C65.9782 19.166 65.7752 18.528 65.3692 18.064C64.9632 17.6 64.3059 17.368 63.3972 17.368H59.2212V13.656H63.1072C65.5432 13.656 67.4089 14.1683 68.7042 15.193C70.0189 16.2177 70.6762 17.6773 70.6762 19.572V20.007C70.6762 21.3217 70.3379 22.3753 69.6612 23.168C69.0039 23.9607 68.1049 24.531 66.9642 24.879C65.8429 25.2077 64.5572 25.372 63.1072 25.372H59.2212ZM81.4207 35.551C80.0287 35.551 78.7914 35.3383 77.7087 34.913C76.626 34.4683 75.7077 33.869 74.9537 33.115C74.219 32.361 73.6584 31.5007 73.2717 30.534C72.885 29.548 72.6917 28.5137 72.6917 27.431V26.764C72.6917 25.662 72.885 24.618 73.2717 23.632C73.6777 22.6267 74.2577 21.747 75.0117 20.993C75.785 20.239 76.713 19.6493 77.7957 19.224C78.8784 18.7793 80.0867 18.557 81.4207 18.557C82.7934 18.557 84.0114 18.7793 85.0747 19.224C86.1574 19.6493 87.0757 20.239 87.8297 20.993C88.5837 21.747 89.1637 22.6267 89.5697 23.632C89.9757 24.618 90.1787 25.662 90.1787 26.764V27.431C90.1787 28.5137 89.9854 29.548 89.5987 30.534C89.212 31.5007 88.6417 32.361 87.8877 33.115C87.153 33.869 86.2444 34.4683 85.1617 34.913C84.079 35.3383 82.832 35.551 81.4207 35.551ZM81.4207 31.636C82.3294 31.636 83.0834 31.4427 83.6827 31.056C84.282 30.6693 84.7364 30.128 85.0457 29.432C85.3744 28.736 85.5387 27.9627 85.5387 27.112C85.5387 26.2033 85.3744 25.4107 85.0457 24.734C84.717 24.038 84.2434 23.487 83.6247 23.081C83.0254 22.675 82.2907 22.472 81.4207 22.472C80.57 22.472 79.8354 22.675 79.2167 23.081C78.598 23.487 78.1244 24.038 77.7957 24.734C77.4864 25.4107 77.3317 26.2033 77.3317 27.112C77.3317 27.9627 77.4864 28.736 77.7957 29.432C78.105 30.128 78.569 30.6693 79.1877 31.056C79.8064 31.4427 80.5507 31.636 81.4207 31.636ZM100 35.551C98.608 35.551 97.3706 35.3383 96.288 34.913C95.2053 34.4683 94.287 33.869 93.533 33.115C92.7983 32.361 92.2376 31.5007 91.851 30.534C91.4643 29.548 91.271 28.5137 91.271 27.431V26.764C91.271 25.662 91.4643 24.618 91.851 23.632C92.257 22.6267 92.837 21.747 93.591 20.993C94.3643 20.239 95.2923 19.6493 96.375 19.224C97.4576 18.7793 98.666 18.557 100 18.557C101.373 18.557 102.591 18.7793 103.654 19.224C104.737 19.6493 105.655 20.239 106.409 20.993C107.163 21.747 107.743 22.6267 108.149 23.632C108.555 24.618 108.758 25.662 108.758 26.764V27.431C108.758 28.5137 108.565 29.548 108.178 30.534C107.791 31.5007 107.221 32.361 106.467 33.115C105.732 33.869 104.824 34.4683 103.741 34.913C102.658 35.3383 101.411 35.551 100 35.551ZM100 31.636C100.909 31.636 101.663 31.4427 102.262 31.056C102.861 30.6693 103.316 30.128 103.625 29.432C103.954 28.736 104.118 27.9627 104.118 27.112C104.118 26.2033 103.954 25.4107 103.625 24.734C103.296 24.038 102.823 23.487 102.204 23.081C101.605 22.675 100.87 22.472 100 22.472C99.1493 22.472 98.4146 22.675 97.796 23.081C97.1773 23.487 96.7036 24.038 96.375 24.734C96.0656 25.4107 95.911 26.2033 95.911 27.112C95.911 27.9627 96.0656 28.736 96.375 29.432C96.6843 30.128 97.1483 30.6693 97.767 31.056C98.3856 31.4427 99.13 31.636 100 31.636ZM122.03 35L117.013 27.576H114.78L121.247 19.108H126.119L120.029 26.996L120.087 24.734L127.25 35H122.03ZM110.836 35V13.83H115.476V35H110.836ZM136.839 35L131.619 13.83H136.52L140.609 31.81L139.594 31.143H142.233L141.102 31.81L144.263 14.613H148.207L144.06 35H136.839ZM149.454 35L144.988 14.613H149.135L152.789 31.81L151.687 31.143H154.21L153.253 31.81L156.82 13.83H161.46L156.82 35H149.454ZM170.012 35.551C168.62 35.551 167.383 35.3383 166.3 34.913C165.218 34.4683 164.299 33.869 163.545 33.115C162.811 32.361 162.25 31.5007 161.863 30.534C161.477 29.548 161.283 28.5137 161.283 27.431V26.764C161.283 25.662 161.477 24.618 161.863 23.632C162.269 22.6267 162.849 21.747 163.603 20.993C164.377 20.239 165.305 19.6493 166.387 19.224C167.47 18.7793 168.678 18.557 170.012 18.557C171.385 18.557 172.603 18.7793 173.666 19.224C174.749 19.6493 175.667 20.239 176.421 20.993C177.175 21.747 177.755 22.6267 178.161 23.632C178.567 24.618 178.77 25.662 178.77 26.764V27.431C178.77 28.5137 178.577 29.548 178.19 30.534C177.804 31.5007 177.233 32.361 176.479 33.115C175.745 33.869 174.836 34.4683 173.753 34.913C172.671 35.3383 171.424 35.551 170.012 35.551ZM170.012 31.636C170.921 31.636 171.675 31.4427 172.274 31.056C172.874 30.6693 173.328 30.128 173.637 29.432C173.966 28.736 174.13 27.9627 174.13 27.112C174.13 26.2033 173.966 25.4107 173.637 24.734C173.309 24.038 172.835 23.487 172.216 23.081C171.617 22.675 170.882 22.472 170.012 22.472C169.162 22.472 168.427 22.675 167.808 23.081C167.19 23.487 166.716 24.038 166.387 24.734C166.078 25.4107 165.923 26.2033 165.923 27.112C165.923 27.9627 166.078 28.736 166.387 29.432C166.697 30.128 167.161 30.6693 167.779 31.056C168.398 31.4427 169.142 31.636 170.012 31.636ZM180.849 35V19.108H184.532V25.923H184.445C184.445 23.6803 184.918 21.95 185.866 20.732C186.832 19.514 188.224 18.905 190.042 18.905H190.651V22.907H189.491C188.215 22.907 187.229 23.255 186.533 23.951C185.837 24.6277 185.489 25.6137 185.489 26.909V35H180.849ZM191.895 35V19.108H195.578V25.952H195.317C195.317 24.328 195.52 22.9747 195.926 21.892C196.332 20.8093 196.941 19.9973 197.753 19.456C198.565 18.8953 199.56 18.615 200.74 18.615H200.943C202.141 18.615 203.137 18.8953 203.93 19.456C204.742 19.9973 205.351 20.8093 205.757 21.892C206.182 22.9747 206.395 24.328 206.395 25.952H205.264C205.264 24.328 205.467 22.9747 205.873 21.892C206.298 20.8093 206.917 19.9973 207.729 19.456C208.541 18.8953 209.536 18.615 210.716 18.615H210.919C212.117 18.615 213.123 18.8953 213.935 19.456C214.766 19.9973 215.394 20.8093 215.82 21.892C216.245 22.9747 216.458 24.328 216.458 25.952V35H211.818V25.691C211.818 24.821 211.586 24.1153 211.122 23.574C210.677 23.0327 210.039 22.762 209.208 22.762C208.376 22.762 207.719 23.0423 207.236 23.603C206.752 24.1443 206.511 24.8693 206.511 25.778V35H201.842V25.691C201.842 24.821 201.61 24.1153 201.146 23.574C200.701 23.0327 200.073 22.762 199.261 22.762C198.41 22.762 197.743 23.0423 197.26 23.603C196.776 24.1443 196.535 24.8693 196.535 25.778V35H191.895ZM225.285 35.493C223.023 35.493 221.254 35.029 219.978 34.101C218.702 33.173 218.026 31.868 217.948 30.186H222.066C222.144 30.6887 222.443 31.143 222.965 31.549C223.507 31.9357 224.309 32.129 225.372 32.129C226.184 32.129 226.851 31.9937 227.373 31.723C227.915 31.433 228.185 31.027 228.185 30.505C228.185 30.041 227.982 29.6737 227.576 29.403C227.17 29.113 226.445 28.91 225.401 28.794L224.154 28.678C222.24 28.4847 220.8 27.953 219.833 27.083C218.886 26.213 218.412 25.1013 218.412 23.748C218.412 22.6267 218.693 21.689 219.253 20.935C219.814 20.181 220.587 19.6107 221.573 19.224C222.579 18.8373 223.719 18.644 224.995 18.644C227.045 18.644 228.698 19.0983 229.954 20.007C231.211 20.8963 231.868 22.1917 231.926 23.893H227.808C227.731 23.371 227.46 22.936 226.996 22.588C226.532 22.2207 225.846 22.037 224.937 22.037C224.222 22.037 223.652 22.1723 223.226 22.443C222.801 22.7137 222.588 23.081 222.588 23.545C222.588 23.9897 222.772 24.328 223.139 24.56C223.507 24.792 224.106 24.9563 224.937 25.053L226.184 25.169C228.137 25.3817 229.655 25.923 230.737 26.793C231.82 27.663 232.361 28.8327 232.361 30.302C232.361 31.3653 232.071 32.2933 231.491 33.086C230.911 33.8593 230.09 34.4587 229.026 34.884C227.963 35.29 226.716 35.493 225.285 35.493Z" fill="white"/>
</svg>
