<svg width="154" height="38" viewBox="0 0 154 38" fill="none" xmlns="http://www.w3.org/2000/svg">
<path d="M3.73118 0H26.1201C28.1817 0 29.8516 1.66081 29.8516 3.71131V33.4018C29.8516 35.4523 28.1817 37.1131 26.1201 37.1131H3.73118C1.66954 37.1131 -0.000301361 35.4523 -0.000301361 33.4018V3.71131C-0.000301361 1.66081 1.66954 0 3.73118 0ZM26.1201 3.71131H16.7914V18.5566L21.4557 15.7731L26.1201 18.5566V3.71131Z" fill="#FFC46B"/>
<path d="M42.141 26.2112V23.836H45.3142C45.8833 23.836 46.3101 23.6875 46.5946 23.3906C46.8792 23.0937 47.0214 22.6731 47.0214 22.1287C47.0214 21.5844 46.8792 21.17 46.5946 20.8855C46.3101 20.5886 45.8833 20.4401 45.3142 20.4401H42.141V18.603H45.1658C46.106 18.603 46.941 18.7205 47.6709 18.9556C48.4008 19.1783 48.976 19.5432 49.3967 20.0504C49.8173 20.5576 50.0276 21.2442 50.0276 22.1102V22.37C50.0276 23.1741 49.842 23.8669 49.4709 24.4483C49.0998 25.0174 48.5554 25.4566 47.8379 25.7658C47.1204 26.0627 46.2297 26.2112 45.1658 26.2112H42.141ZM39.5431 26.2112V12.4608H42.5122V26.2112H39.5431ZM42.141 19.9576V18.1391H44.8132C45.3946 18.1391 45.8152 17.9906 46.075 17.6937C46.3348 17.3968 46.4647 17.0009 46.4647 16.5061C46.4647 15.9865 46.3348 15.5783 46.075 15.2814C45.8152 14.9845 45.3946 14.836 44.8132 14.836H42.141V12.4608H44.6276C46.1864 12.4608 47.3802 12.7886 48.209 13.4443C49.0503 14.0999 49.4709 15.034 49.4709 16.2463V16.5247C49.4709 17.3659 49.2544 18.0401 48.8214 18.5473C48.4008 19.0545 47.8255 19.4195 47.0956 19.6422C46.3781 19.8525 45.5554 19.9576 44.6276 19.9576H42.141ZM56.3461 26.471C55.4554 26.471 54.6636 26.3349 53.9709 26.0627C53.2781 25.7782 52.6904 25.3947 52.208 24.9122C51.7379 24.4298 51.3791 23.8792 51.1317 23.2607C50.8843 22.6298 50.7606 21.9679 50.7606 21.2751V20.8483C50.7606 20.1432 50.8843 19.4752 51.1317 18.8442C51.3915 18.2009 51.7626 17.6381 52.2451 17.1556C52.7399 16.6731 53.3337 16.2958 54.0265 16.0236C54.7193 15.7391 55.4925 15.5968 56.3461 15.5968C57.2244 15.5968 58.0038 15.7391 58.6842 16.0236C59.377 16.2958 59.9646 16.6731 60.4471 17.1556C60.9296 17.6381 61.3007 18.2009 61.5605 18.8442C61.8203 19.4752 61.9502 20.1432 61.9502 20.8483V21.2751C61.9502 21.9679 61.8265 22.6298 61.579 23.2607C61.3316 23.8792 60.9667 24.4298 60.4842 24.9122C60.0141 25.3947 59.4327 25.7782 58.7399 26.0627C58.0471 26.3349 57.2492 26.471 56.3461 26.471ZM56.3461 23.9658C56.9275 23.9658 57.41 23.8421 57.7935 23.5947C58.177 23.3473 58.4677 23.0009 58.6657 22.5555C58.876 22.1102 58.9811 21.6153 58.9811 21.071C58.9811 20.4896 58.876 19.9824 58.6657 19.5494C58.4554 19.104 58.1523 18.7515 57.7564 18.4917C57.3729 18.2319 56.9028 18.102 56.3461 18.102C55.8018 18.102 55.3317 18.2319 54.9358 18.4917C54.5399 18.7515 54.2368 19.104 54.0265 19.5494C53.8286 19.9824 53.7296 20.4896 53.7296 21.071C53.7296 21.6153 53.8286 22.1102 54.0265 22.5555C54.2245 23.0009 54.5214 23.3473 54.9172 23.5947C55.3131 23.8421 55.7894 23.9658 56.3461 23.9658ZM68.2346 26.471C67.3439 26.471 66.5522 26.3349 65.8594 26.0627C65.1666 25.7782 64.579 25.3947 64.0965 24.9122C63.6264 24.4298 63.2676 23.8792 63.0202 23.2607C62.7728 22.6298 62.6491 21.9679 62.6491 21.2751V20.8483C62.6491 20.1432 62.7728 19.4752 63.0202 18.8442C63.28 18.2009 63.6511 17.6381 64.1336 17.1556C64.6285 16.6731 65.2223 16.2958 65.915 16.0236C66.6078 15.7391 67.381 15.5968 68.2346 15.5968C69.113 15.5968 69.8923 15.7391 70.5727 16.0236C71.2655 16.2958 71.8531 16.6731 72.3356 17.1556C72.8181 17.6381 73.1892 18.2009 73.449 18.8442C73.7088 19.4752 73.8387 20.1432 73.8387 20.8483V21.2751C73.8387 21.9679 73.715 22.6298 73.4676 23.2607C73.2201 23.8792 72.8552 24.4298 72.3727 24.9122C71.9026 25.3947 71.3212 25.7782 70.6284 26.0627C69.9356 26.3349 69.1377 26.471 68.2346 26.471ZM68.2346 23.9658C68.8161 23.9658 69.2985 23.8421 69.682 23.5947C70.0655 23.3473 70.3563 23.0009 70.5542 22.5555C70.7645 22.1102 70.8696 21.6153 70.8696 21.071C70.8696 20.4896 70.7645 19.9824 70.5542 19.5494C70.3439 19.104 70.0408 18.7515 69.6449 18.4917C69.2614 18.2319 68.7913 18.102 68.2346 18.102C67.6903 18.102 67.2202 18.2319 66.8243 18.4917C66.4284 18.7515 66.1254 19.104 65.915 19.5494C65.7171 19.9824 65.6181 20.4896 65.6181 21.071C65.6181 21.6153 65.7171 22.1102 65.915 22.5555C66.113 23.0009 66.4099 23.3473 66.8058 23.5947C67.2016 23.8421 67.6779 23.9658 68.2346 23.9658ZM82.3314 26.1184L79.1211 21.3679H77.6922L81.8303 15.9494H84.9478L81.051 20.9968L81.0881 19.5494L85.6716 26.1184H82.3314ZM75.1685 26.1184V12.5721H78.1376V26.1184H75.1685ZM91.807 26.1184L88.4668 12.5721H91.6028L94.2193 24.0772L93.5698 23.6504H95.2585L94.5348 24.0772L96.5574 13.0731H99.0811L96.4275 26.1184H91.807ZM99.8791 26.1184L97.0214 13.0731H99.6749L102.013 24.0772L101.308 23.6504H102.922L102.31 24.0772L104.592 12.5721H107.561L104.592 26.1184H99.8791ZM113.034 26.471C112.144 26.471 111.352 26.3349 110.659 26.0627C109.966 25.7782 109.379 25.3947 108.896 24.9122C108.426 24.4298 108.067 23.8792 107.82 23.2607C107.572 22.6298 107.449 21.9679 107.449 21.2751V20.8483C107.449 20.1432 107.572 19.4752 107.82 18.8442C108.08 18.2009 108.451 17.6381 108.933 17.1556C109.428 16.6731 110.022 16.2958 110.715 16.0236C111.407 15.7391 112.181 15.5968 113.034 15.5968C113.913 15.5968 114.692 15.7391 115.372 16.0236C116.065 16.2958 116.653 16.6731 117.135 17.1556C117.618 17.6381 117.989 18.2009 118.249 18.8442C118.508 19.4752 118.638 20.1432 118.638 20.8483V21.2751C118.638 21.9679 118.515 22.6298 118.267 23.2607C118.02 23.8792 117.655 24.4298 117.172 24.9122C116.702 25.3947 116.121 25.7782 115.428 26.0627C114.735 26.3349 113.937 26.471 113.034 26.471ZM113.034 23.9658C113.616 23.9658 114.098 23.8421 114.482 23.5947C114.865 23.3473 115.156 23.0009 115.354 22.5555C115.564 22.1102 115.669 21.6153 115.669 21.071C115.669 20.4896 115.564 19.9824 115.354 19.5494C115.143 19.104 114.84 18.7515 114.445 18.4917C114.061 18.2319 113.591 18.102 113.034 18.102C112.49 18.102 112.02 18.2319 111.624 18.4917C111.228 18.7515 110.925 19.104 110.715 19.5494C110.517 19.9824 110.418 20.4896 110.418 21.071C110.418 21.6153 110.517 22.1102 110.715 22.5555C110.913 23.0009 111.209 23.3473 111.605 23.5947C112.001 23.8421 112.478 23.9658 113.034 23.9658ZM119.968 26.1184V15.9494H122.325V20.3102H122.269C122.269 18.8752 122.572 17.768 123.178 16.9886C123.797 16.2092 124.688 15.8195 125.851 15.8195H126.24V18.3803H125.498C124.682 18.3803 124.051 18.603 123.605 19.0484C123.16 19.4813 122.937 20.1123 122.937 20.9411V26.1184H119.968ZM127.036 26.1184V15.9494H129.393V20.3288H129.226C129.226 19.2896 129.356 18.4236 129.616 17.7308C129.875 17.0381 130.265 16.5185 130.785 16.1721C131.304 15.8133 131.941 15.6339 132.696 15.6339H132.826C133.593 15.6339 134.23 15.8133 134.737 16.1721C135.257 16.5185 135.647 17.0381 135.906 17.7308C136.179 18.4236 136.315 19.2896 136.315 20.3288H135.591C135.591 19.2896 135.721 18.4236 135.981 17.7308C136.253 17.0381 136.649 16.5185 137.168 16.1721C137.688 15.8133 138.325 15.6339 139.08 15.6339H139.209C139.976 15.6339 140.62 15.8133 141.139 16.1721C141.671 16.5185 142.073 17.0381 142.345 17.7308C142.618 18.4236 142.754 19.2896 142.754 20.3288V26.1184H139.785V20.1618C139.785 19.6051 139.636 19.1535 139.339 18.8071C139.055 18.4607 138.647 18.2875 138.115 18.2875C137.583 18.2875 137.162 18.4669 136.853 18.8257C136.543 19.1721 136.389 19.636 136.389 20.2174V26.1184H133.401V20.1618C133.401 19.6051 133.253 19.1535 132.956 18.8071C132.671 18.4607 132.269 18.2875 131.75 18.2875C131.205 18.2875 130.779 18.4669 130.469 18.8257C130.16 19.1721 130.005 19.636 130.005 20.2174V26.1184H127.036ZM148.402 26.4339C146.955 26.4339 145.823 26.137 145.006 25.5432C144.19 24.9493 143.757 24.1143 143.707 23.038H146.343C146.392 23.3597 146.584 23.6504 146.918 23.9102C147.264 24.1576 147.778 24.2813 148.458 24.2813C148.978 24.2813 149.404 24.1947 149.738 24.0215C150.085 23.836 150.258 23.5762 150.258 23.2421C150.258 22.9452 150.128 22.7102 149.868 22.537C149.608 22.3514 149.145 22.2215 148.477 22.1473L147.679 22.0731C146.454 21.9494 145.532 21.6092 144.914 21.0525C144.307 20.4958 144.004 19.7844 144.004 18.9185C144.004 18.2009 144.184 17.6009 144.543 17.1185C144.901 16.636 145.396 16.2711 146.027 16.0236C146.67 15.7762 147.4 15.6525 148.217 15.6525C149.528 15.6525 150.586 15.9432 151.39 16.5247C152.194 17.0937 152.615 17.9226 152.652 19.0112H150.017C149.967 18.6772 149.794 18.3989 149.497 18.1762C149.2 17.9411 148.761 17.8236 148.18 17.8236C147.722 17.8236 147.357 17.9102 147.085 18.0834C146.813 18.2566 146.677 18.4917 146.677 18.7886C146.677 19.0731 146.794 19.2896 147.029 19.438C147.264 19.5865 147.648 19.6917 148.18 19.7535L148.978 19.8277C150.227 19.9638 151.198 20.3102 151.891 20.8669C152.584 21.4236 152.93 22.172 152.93 23.1122C152.93 23.7927 152.745 24.3865 152.373 24.8937C152.002 25.3885 151.477 25.772 150.796 26.0442C150.116 26.304 149.318 26.4339 148.402 26.4339Z" fill="#171921"/>
</svg>
